<svg xmlns="http://www.w3.org/2000/svg" id="article" viewBox="0 0 640 640" fill="none" stroke="#666" stroke-width="20" stroke-linecap="round" stroke-linejoin="round">
  <line x1="93.51" y1="288.96" x2="336.39" y2="443.89"/>
  <line x1="256.25" y1="178.26" x2="483.11" y2="322.96"/>
  <line x1="342.85" y1="293.11" x2="439.99" y2="355.07"/>
  <line x1="309.95" y1="320" x2="407.09" y2="381.96"/>
  <line x1="271.67" y1="349.02" x2="368.81" y2="410.98"/>
  <polyline points="286.3,291.64 316.47,270.56 220.6,208.65 135.44,261.55 233.78,324.19 258.32,309.07 "/>
  <path stroke-width="30" d="M347.52,559.68c0,0-218.88-130.8-298.56-189.12c-19.08-13.97-23.75-42.94-24.53-66.58c-0.77-23.23,7.19-45.13,22.85-62.3C89.72,195.12,254.4,102.72,254.4,102.72l361.31,224.07l-196.49,124.8c-4.28,2.72-7.93,6.33-10.7,10.58c-11,16.87-29.73,58.2-22.61,84.07c5.5,19.97,23.04,13.44,23.04,13.44s116.13-63.97,192-116.16c33.84-23.28,0-49.92,0-49.92c-62.4,37.44-114.24,72-176.64,109.44"/>
</svg>