<svg xmlns="http://www.w3.org/2000/svg" id="home" viewBox="0 0 640 640" fill="none" stroke="#666" stroke-width="50">
  <path d="M307.06,59.5L41.24,325.31c-3.49,3.49-5.44,8.21-5.44,13.15v228.9c0,10.27,8.32,18.59,18.59,18.59h166.18c10.27,0,18.59-8.32,18.59-18.59v-135.2c0-10.27,8.32-18.59,18.59-18.59h125.06c10.27,0,18.59,8.32,18.59,18.59v135.2c0,10.27,8.32,18.59,18.59,18.59h165.62c10.27,0,18.59-8.32,18.59-18.59V341.21c0-4.89-1.93-9.59-5.37-13.07L333.43,59.57C326.18,52.24,314.35,52.21,307.06,59.5z"/>
</svg>