<svg xmlns="http://www.w3.org/2000/svg" id="logo" viewBox="0 0 4665 1883">
  <path id="registered" fill="#888" d="M4095,388.7c6.7,15.7,19.2,28.5,35.1,35.1c16.5,6.9,34.9,6.9,51.4,0c15.7-6.7,28.5-19.2,35.1-35.1c6.9-16.5,6.9-34.9,0-51.4c-6.7-15.7-19.2-28.5-35.1-35.1c-16.5-6.9-34.9-6.9-51.4,0c-15.7,6.7-28.5,19.2-35.1,35.1C4088.3,353.8,4088.3,372.2,4095,388.7z M4106.2,342.1c29.7-65,124.9-24.1,99.2,41.8C4175.6,448.7,4080.5,408.3,4106.2,342.1L4106.2,342.1z M4176.9,402.3l10.1-6.1l-16.5-27.4c18.3-6.6,18.5-34,0.5-41c-5.6-3.5-33.9-1.4-40.4-1.9V402h12v-31.9h14.9L4176.9,402.3z M4163.1,337.9c5.6,0,9.8,4.8,9.6,10.1c0,5.3-4.5,9.6-9.6,9.6h-20v-20h20V337.9z"/>
  <path id="soberia" fill="#104C55" d="M695.1,461.1c-15.7,23.8,13.1,52,37.1,36.8c43.6-32,76.7-77.6,97.4-127.2c34.3-82.8,18.3-184-54.3-242.4C615.6,9.1,352.2,50.7,202.7,177.4C49.9,299.3-6.6,566.2,159.9,700.1c99.1,86.1,228,131.7,342.2,193.3c99.4,51.8,207.6,129.5,205.6,254.4c0.5,83.1-43.6,165.6-117.8,205.1c-118.8,63-334.2,77.7-403.9-66.3c-45.5-102.5,23.4-197.7,111.5-244.8c12.3-14.1,4.7-36.8-13.6-40.5c-33.9,1.8-89.3,33.8-117.3,53.8c-54.4,38.7-94.5,102.6-92.2,171.1c5.5,160.1,177.1,215.1,327,212.1c300.1,10.5,570.5-323.1,307.5-561.1C573.1,755.8,387.1,709.7,245.5,596.9C48.8,447.8,152.2,202.2,361,131.7c105-37.9,248.1-37.8,326.3,44.9C760.2,252.1,759,380.4,695.1,461.1z M1481.8,987.8c-26.1,57.9-70.6,101.4-130.9,117.8c26.4-109.6,14.2-242.9-50.2-330.4c-42.7-58.7-115.5-94.2-182.1-63.2c-63.6,31.4-86.6,99.9-86.5,169.5c-2.4,124,84.5,247.9,207.9,274c-27.2,154.5-168.1,216-247.4,63c-62.8-135.2-52.5-325.4,17.5-446.4c10.7-18,23.8-41.3,37.6-59.8c9.9-13.3-3.1-31.9-18.8-26.4c-16.6,7.2-32.2,17.1-46.5,28c-187.4,138-202.9,486.5,9.9,607.1c147.3,74.2,293.9-15.1,343.3-163.8c80.9-14,145-69.2,178.7-145L1481.8,987.8z M1103.8,793.7c39.4-60.6,98.7-15.2,118.9,38.4c35.5,86.7,37.9,185.2,25.3,276.9C1119.2,1081.2,1046.3,905.2,1103.8,793.7z M1618.9,811.9c32.2-124.6,152.9-538.6,94.8-636.9c-9.7-12.5-24.8-19.9-40.8-19.6c-139.2,17-167.2,241.7-189.7,379c-17.7,228.3-92.3,803.2,255.5,812.4c111.8,2.8,199-89.9,232.8-189.7c80.9-14,145-69.2,178.7-145l-32.7-24.8c-26.1,57.9-70.6,101.4-130.9,117.8c26.4-109.6,14.2-242.9-50.2-330.4c-42.7-58.7-115.5-94.2-182.1-63.2c-63.7,31.4-86.2,99.9-86.2,169.5c-2.4,124,84.5,247.9,207.9,274c-18.3,101.9-101.5,200.7-197.7,125.1c-49.7-47.5-66.6-118.2-79.7-194.9c-7.3-47.5-11.5-101.9-12-163C1596.7,888.5,1607.7,851.4,1618.9,811.9z M1739.4,793.7c39.4-60.6,98.7-15.2,118.9,38.4c35.5,86.7,37.9,185.2,25.3,276.9C1754.9,1081.3,1681.5,905,1739.4,793.7z M1670.7,372.6c-16,136.3-48.4,283.7-84.4,418.2c5.8-176.8,10.6-368.1,57.5-537.1c7.8-24.1,19.6-34.1,30.3-15.2C1683.7,282,1673.9,328.4,1670.7,372.6z M2291.9,1244c-63.9-30.9-92.4-104.4-101.1-170.8c98.9-66.9,281.5-148.4,286-280.3c1.3-110.6-142.8-117.5-217.6-70.3c-121.5,69.5-176.8,214.1-176.1,355.5c-5.9,161.6,122.1,325.1,294.7,251.8c121.9-61.3,193.3-190,258.3-317.1l-32.7-24.8C2545.1,1100.4,2445.3,1311.4,2291.9,1244z M2357.4,881.2c-40.3,65.5-104,113.8-170.3,151C2177.4,656.8,2450.7,705.1,2357.4,881.2z M2628,1029c30.6-61.9,60.2-137.4,71.6-204c61.8-6.4,116.1-51.4,166.7-81.2c14.4-9.1,25.9-13.6,34.2-13.6l4.7,4.7c-43.2,128.8-129,246-160.1,381.1c-34,117.1,3.6,280.2,150.7,217.1c100.7-63.9,158.7-202.3,221.8-320.8l-32.7-24.8c-40.5,77.7-124.1,259.8-196.2,269.3c-119.2,9.5,38.2-421.7,49.9-487.7c11.5-41.9,15.3-74.7-33.2-75c-68.2,1.7-130.9,39.2-199.3,40.2c2.2-74.5-64.4-125.9-128-75.2c-27.3,24.1-29,66.6-15.1,98.2c16.4,37.9,56.3,59.4,96.1,63.7c-9.9,60.2-35.4,126.6-64,182.6L2628,1029z M2655.2,699.4c4.7,9.9,7.1,22.2,7.1,37.1c-22.7,0.7-57.8-22.9-40-47.3C2633.2,679.2,2649.2,685.8,2655.2,699.4z M3133.5,996.4c-0.7,97.7-17,284.8,67.9,337.8c37,19.5,82.9,19.4,118.3-14.4c86.6-80,134.8-203.8,191.5-307.5l-32.7-24.8c-32.5,55.7-158.3,349.5-224.9,244.2c-15.8-35.8-16.2-72.5-17-122.8c-0.1-111.7,9-234.1,19.9-338.5c2.5-39,15.5-77.2-25.9-76c-24.1,2.2-52.7,10.2-65,32.7c-3.7,8.1-7.3,20.9-11.2,39.2c-15.4,77.6-38,165.6-76.5,238.2l32.7,24.8c3.9-8.2,12-24.6,16.2-32.7L3133.5,996.4z M3270.4,484.6c-61-60-152.9,32-93,93C3239.4,636.5,3329,546.9,3270.4,484.6z M3947.7,1022.4c16.3-95.6,42.9-186.5,62.2-267.9c4.6-22.5-21.6-17.6-35.9-16.7c-21.7,2.3-43.9,7-62.3,19.3c-8.9,5.1-15,14-17.3,24l-17.3,76c-12.2-50.7-44.3-96.9-87.9-125.8c-133.9-72.8-272.2,53.6-321.1,178.5c-44.3,107.4-61.1,265.4,6.8,363.9c127.8,161.1,264,57.4,350.8-80.8c-0.3,58.7-2.2,127.2,40.1,173c25.1,23.8,62.7,25,94.1,4.1c45.6-29.1,88.3-88,120.6-134.6c22.2-34.1,50.8-72.7,74.8-116.5c4.9-18.1-14.3-33.5-30.9-24.6l0,0C3931.6,1408,3888.3,1341.2,3947.7,1022.4z M3829.5,1100.5c-30.6,77.9-81.4,168.2-166.9,169.4c-146.5-24.3-127.6-244.1-88.9-365c38.6-124.3,175.8-215.1,256.5-74.4C3877.6,910.2,3857.3,1022.4,3829.5,1100.5z"/>
  <path id="sword" fill="#444" d="M4612.3,1515.4c-0.7-20.6-6.7-55.5-7-56.3c-43.3-199.3-400.3-229.8-541.8-149.3c-86.7,49.2-50.2,241.8-127.9,222c-0.8-0.2-1.8-0.5-2.6-0.5c-972.2-121.2-1959.6-154.3-2935.2-45.9c-286.2,32.8-421.4,46.6-597.3,72.4c-0.6,0-1.1,0.3-1.6,0.3c-38,7.8-235.8,21.3-240.5,89.1c651.7-90.7,1530.1-170.2,2220.2-149.2c469.6,7.1,1123.4,60.5,1553.1,117.3c11.9,1.6,21.3,11.5,22.1,23.7c5.5,75.5,44.1,128.4-57.3,158.4c-14.3,4.4-22.7,20.3-16.4,34.1c19.8,42.8,144.1-32,118.8-175.6c-1-7,0.8-15.1,6.8-19c34.9-23,186.5,15.1,205.3,19.5c1.1,0.2,2.4,0.5,3.4,0.5c120.6,11.8,371.8,68.3,395-89.6C4611.5,1552.7,4612.8,1535.2,4612.3,1515.4z M4471,1554.5c-7.8-8.6-19.3-16.2-31-10.9c-55.2,39.9-55.8-1.6-99-4.4c-24.2-1.6-32.6,18.8-49.8,17.5c-30.5,2.1-37.5-30-62-21.9c-57.6,36-69.6-29.7-104.8-25.8c-26.8,3.1-64.6,8.3-90.7,8.1c-11.7,0-20.8-9.9-20.1-21.6c0.9-18.5,5.8-53.9,5.8-54.7c17.7-129.5,108.4-149.6,225.4-154c76.4-2.9,167.6,9.1,218.9,35.7c0.8,0.3,79.5,41.2,103.2,79.5c17.2,27.4,25.3,33.4,25.3,79C4592.2,1560.7,4502.3,1571.2,4471,1554.5z"/>
</svg>