<svg xmlns="http://www.w3.org/2000/svg" viewBox="0 0 640 640" width="640" height="640" fill="#666">
  <path d="M295.1,582.7c-1.6-2.2-5-3.2-7.6-4.7c-21.3-10.5-33.5-30.3-50.2-47.4c-5.5-4.5-5.4,10.3-11.1,5c-15.4-19.9-30.5-39.4-45.3-59.1c-2.7-3.6-4.8-8.6-4.9-13c0-36.1-31.4-61.5-32-97.2c0-0.8,0.9-1.2,1.4-0.6c32.9,31.6,58.4,70.3,86.9,105.8c8.3,11,17.7,14,30.3,10.8c17.4-4.3,34.7-9.4,52.4-12c31.9-4.6,60.4,15.2,89.1,26c10.5,4.5,18,2.4,22.7-8.3c16.1-34.9,33.5-79.5,56.7-111.1c0.5-0.6,1.4-0.3,1.5,0.4c7.3,63.1-56.4,179.9-105.7,201.6c-1.5,0.7-3.2-0.4-3.3-2c-0.5-4.5-0.9-9.3-1.5-14.9c-0.1-0.8-1.1-1-1.5-0.4c-16,22.7-30.7,43.4-45.4,64.2c-0.8,1.1-2.5,1.1-3.3,0C314.7,611.4,305.1,596.9,295.1,582.7z"/>
  <path d="M421.4,311.2c-88.1,22-105.6,21.3-202.3-3.1c-2.2-0.6-3.5,2.5-1.5,3.6c5.7,3.4,13.4,7.4,22.6,11.5c-0.3,0.4-7.7,20.3-7.7,20.3c-0.8,2.3,0.3,4.8,2.6,5.7c2.3,0.8,4.8-0.3,5.7-2.6c0,0,7.2-19.8,7.2-20.1c8.6,3.4,18.3,6.7,28.7,9.4c-0.2,0.4-2.6,21.4-2.6,21.4c-0.3,2.4,1.5,4.6,3.9,4.9h0c2.4,0.3,4.6-1.5,4.9-3.9c0,0,2.3-20.3,2.3-20.4c10,2.2,20.5,3.8,31.3,4.6c-0.2,0.5-0.3,21.8-0.3,21.8c0,2.4,2,4.4,4.4,4.4s4.4-2,4.4-4.4c0,0-0.1-21.1-0.2-21.4c2.1,0,23-0.9,30.6-2.1c0,0.2,3.8,20.7,3.8,20.7c0.4,2.4,2.7,4,5.1,3.5c2.4-0.4,4-2.7,3.5-5.1c0,0-3.8-20.5-3.9-20.7c9.6-2.1,18.3-4.9,26.1-7.9l7.2,17.9c0.7,2.3,3.1,3.7,5.4,3.1c2.3-0.7,3.7-3.1,3.1-5.4c0,0-7.5-18.9-7.6-19c10.2-4.6,18.5-9.6,24.5-13.6C424.1,313.1,423.1,310.8,421.4,311.2z"/>
  <path d="M433,260.5c4.5,14.3-65.3-8.9-73.3-11c-49.1-12-103.9,1.3-151.4,16.7c-2.2,0-3.2-2.9-1.3-4.1C270.1,218.5,376.8,197,433,260.5z"/>
  <path d="M364.9,19.1c11.5,3.4,29.4,34.6,35.8,29.6c7-5,15.4-15,21.3-15.3c4.8-0.2,1.2,4.4-0.5,5.9c-23.2,20.7,9.2,34.2,27.8,21.1c2.4-1.7,9.3-3.9,15.4-3.6c0.9,0,1.3,1.1,0.6,1.7c-2.4,3.3-12.1,7.6-9.6,11.5c31.5,32.5,66,60.7,69.4,108.6c0,4.7-11.7,1-11.7,1c8.7,17.8-13.7,207.7-32.7,185.6c2.3-46.6,22.9-101.2-16.2-137.3c-7.6-7.2-9-16.4-8.5-26.8c6.6-86.5-38.7-101.8-111.9-71c-30,11.8-60-7.1-90.2-8.9c-38.7-4.6-67.5,17.8-68.9,56.5c-2.4,76-56.9,73.4-41,163.6c0.4,3.8,3.1,19-1.4,16.4c-29-54.1-22.4-123.1-15.8-196.2c-0.7-7.8-11.1,8.3-11.7,3.8C143.4,52.8,266,20.1,367.1,47.9c2.1,0.6,4.4-0.6,5.1-2.7c3.4-10.8-10.7-15.6-9.5-25.3C362.8,18.9,363.9,18.6,364.9,19.1z"/>
</svg>